# xmcd CD database file
#
# Track frame offsets:
#	200
#	13825
#	26775
#	45262
#	60500
#	77950
#	95375
#	110360
#
# Disc length: 1715 seconds
#
# Revision: 0
# Processed by: cddbd v1.5.2PL0 Copyright (c) Steve Scherf et al.
# Submitted via: CDex 1.51
#
DISCID=5a06b108
DTITLE=Various Artist - Country Sampler #2
DYEAR=1900
DGENRE=Country
TTITLE0=Lisa Brokop - Give Me A Ring Sometime
TTITLE1=Chris LeDoux - Cadillac Ranch
TTITLE2=Suzy Bogguss - Hey Cinderella
TTITLE3=John Berry - A Mind Of Her Own
TTITLE4=Cleve Francis - Walkin'
TTITLE5=Tanya Tucker - Some Kind Of Trouble
TTITLE6=Billy Dean - If There Hadn't Been You
TTITLE7=George Ducas - Lipstick Promises
EXTD=
EXTT0=
EXTT1=
EXTT2=
EXTT3=
EXTT4=
EXTT5=
EXTT6=
EXTT7=
PLAYORDER=
